<?xml version="1.0" encoding="UTF-8"?>
<svg id="uuid-73d14847-22ed-44af-83d9-4b8bb74e7938" data-name="Layer 1" xmlns="http://www.w3.org/2000/svg" viewBox="0 0 1024 1024">
  <path d="M0,1023.5V0h1024v1024H0v-.5ZM549.75,567.69l33.95-14.71c21.47-9.3,41.13-20.46,59.95-34.39,26.81-17.85,43.03-38.02,63.7-62.54-15.38.19-29.18-.18-43.55-4.19l18.69-4.18c13.82-4.06,27.47-7.7,39.85-15.33,3.68-2.26,7.36-6.3,10.44-9.68,34.34-37.63,57.79-71,83.77-115.6-6.5.32-11.81,1.03-17.5.68l-17.13-1.06c17.83-7.11,33-15.8,48.9-26.12,5.61-8.98,10.47-17.9,15.33-27.57l23.76-47.24,20.08-36.76,17.22-32.9c6.85-13.09,14.38-24.72,23.24-37.62-63.89,14.28-123.39,38.82-177.65,75.41-10.06,12.73-14.86,25.6-24.26,38.91-1.68-9.32.43-17.37,2-26.45-29.7,20.77-54.47,44.12-79.12,68.96-27.23,27.45-57.74,63.49-75.25,98-4.33,23.9-3.78,46.84-1.03,71.88-8.23-11.64-12.64-24.26-18.15-38.16-16.1,32.54-30.73,62.61-31.45,98.93-1.46,12.3,4.84,65.94,2.48,72.6-10.64,30.02-27.41,56.39-46.68,81.74-3.23,14.21-3.06,28.12-3.55,42.65l-.83,25.03c13.16-13.46,25.22-26.67,36.6-41.51,3.28-4.28,4.27-9.2,4.5-14.47,1.31-29.87,14.35-60.36,31.69-84.36ZM664.54,538.58l-15.62-.81c-2.98-.15-5.76.39-8.34,2.17l21.5,3.28c15.96,2.43,31.34,6.13,46.46,12.35l.46,116.38.52,85.11.6,122.99-104.03-.4-39.2.76c-30.01,1.26-77.71,5.81-102.83,23.35l-.25-107.92-.51-178.53c10.15-16.76,21.82-31.77,37.12-43.78,7.66-6.01,14.12-14.2,14.37-24.39-1.07-1.64-4.74-1.3-6.59-.09-17.91,11.71-42.22,35.85-50.27,55.33-41.15-57.14-106.39-76.98-171.5-94.1-15.29-4.02-30.46-6.47-46.29-8.54l-.79,47.9-17.34,1.17-.59,7.09-9.42,1.83c-10.89,2.12-17.39,11.26-17.33,22.35l.47,86.99.93,139.89-.07,83.05c-.01,13.93,9.99,23.92,24.32,23.95l208.21.47,13.17,7.21c9.51,5.21,20.78,4.64,30.01-.78,5.6-3.29,11.25-6.34,17.36-8.93l144.87,1.33,96.11.49c10.15.05,21.79-10.03,21.79-21.07l-.02-312.52c0-13.27-15.02-21.9-26.57-19.99l-.36-20.25-24.92-1.41-35.43-1.93ZM659.86,654.38l-41.9.02-70.25-.03c-4.59,0-6.98,4.58-6.76,8.04.27,4.24,3.34,6.71,8.12,6.72l107.45.36c5.25.02,9.92-.43,10.84-6.28.65-4.16-2.46-8.83-7.49-8.83ZM661.28,733.96c4.93,0,6.6-5.58,6.22-8.41s-2.74-6.57-6.59-6.57l-149.39.14c-4.43,0-7.02,5.03-6.6,8.2s3.08,6.69,7.22,6.69l149.14-.06ZM659.03,797.63c5.15.19,9.32-4.1,8.59-8.54-.86-5.2-4.68-6.99-9.77-6.99h-142.75c-4.98,0-8.81.64-10.04,5.75-.87,3.65.9,7.6,5.38,9.14l132.41.03,16.17.6Z" fill="#fff"/>
  <path d="M549.75,567.69c-17.34,23.99-30.39,54.49-31.69,84.36-.23,5.27-1.22,10.19-4.5,14.47-11.38,14.84-23.44,28.05-36.6,41.51l.83-25.03c.48-14.53.31-28.44,3.55-42.65,19.27-25.34,36.04-51.71,46.68-81.74,2.36-6.65-3.94-60.3-2.48-72.6.73-36.32,15.35-66.39,31.45-98.93,5.52,13.9,9.92,26.51,18.15,38.16-2.75-25.04-3.3-47.98,1.03-71.88,17.51-34.51,48.02-70.56,75.25-98,24.64-24.84,49.42-48.19,79.12-68.96-1.57,9.07-3.68,17.13-2,26.45,9.4-13.31,14.2-26.18,24.26-38.91,54.27-36.59,113.76-61.13,177.65-75.41-8.86,12.89-16.39,24.53-23.24,37.62l-17.22,32.9-20.08,36.76-23.76,47.24c-4.86,9.66-9.72,18.59-15.33,27.57-15.89,10.31-31.07,19-48.9,26.12l17.13,1.06c5.69.35,11-.36,17.5-.68-25.98,44.6-49.42,77.97-83.77,115.6-3.08,3.38-6.77,7.42-10.44,9.68-12.38,7.63-26.03,11.26-39.85,15.33l-18.69,4.18c14.37,4.01,28.17,4.38,43.55,4.19-20.67,24.53-36.89,44.69-63.7,62.54-18.82,13.93-38.49,25.09-59.95,34.39l-33.95,14.71ZM537.08,568.36l82.43-128.8c31.3-48.91,65.37-95.12,101.44-140.49,20.68-26.01,41.42-50.73,63.9-75.12l55.86-60.6c-25.84,19.07-49.38,41.18-71.95,64.51-56.16,58.05-106.47,121.04-151.97,187.68-35.01,51.28-47.49,75.01-72.33,131.63-3.04,6.92-6.28,13.21-7.38,21.19Z"/>
  <path d="M664.54,538.58l35.43,1.93,24.92,1.41.36,20.25c11.55-1.91,26.57,6.72,26.57,19.99l.02,312.52c0,11.04-11.64,21.12-21.79,21.07l-96.11-.49-144.87-1.33c-6.12,2.59-11.76,5.64-17.36,8.93-9.23,5.41-20.49,5.99-30.01.78l-13.17-7.21-208.21-.47c-14.33-.03-24.33-10.03-24.32-23.95l.07-83.05-.93-139.89-.47-86.99c-.06-11.09,6.45-20.23,17.33-22.35l9.42-1.83.59-7.09,17.34-1.17.79-47.9c15.83,2.07,31,4.52,46.29,8.54,65.11,17.12,130.35,36.96,171.5,94.1,8.05-19.48,32.35-43.62,50.27-55.33,1.85-1.21,5.52-1.54,6.59.09-.25,10.19-6.7,18.37-14.37,24.39-15.3,12.01-26.98,27.02-37.12,43.78l.51,178.53.25,107.92c25.13-17.54,72.82-22.09,102.83-23.35l39.2-.76,104.03.4-.6-122.99-.52-85.11-.46-116.38c-15.12-6.22-30.5-9.91-46.46-12.35l-21.5-3.28c2.58-1.78,5.36-2.32,8.34-2.17l15.62.81ZM448.51,884.81l.2-270.4c-27.93-34.52-68.36-58.6-110.07-71.71-27.62-9.21-55.53-17.82-84.46-23.01l-.16,101.38-.75,175.79.34,44.52,114.7,30.28c28.72,7.58,55.12,20.12,80.12,35.42l.08-22.27ZM577.67,899.74l150.15.28c5.53.01,9.34-3.79,9.35-9.12l.27-150.91-.04-159.35c-1.94-4.51-9.01-5.68-13-4.57l.48,237.79.56,81.24-114.37-.49c-23.35-.1-45.32.71-67.72,4.52l34.33.6ZM321.24,875.92l-40.81-10.25-43.34-10.75-1.08-194.79-.36-84.15-20.84,1.01c-1.49.07-3.85,2.13-3.84,4.07l.91,131.88.21,87.07.88,96.88c9.04.99,17.1,1.74,26.19,1.73l148.82-.07c-19.05-10.27-46.31-16.81-66.75-22.64Z"/>
  <path d="M659.03,797.63l-16.17-.6-132.41-.03c-4.48-1.54-6.25-5.49-5.38-9.14,1.22-5.12,5.05-5.76,10.04-5.76h142.75c5.09,0,8.91,1.79,9.77,6.99.73,4.44-3.45,8.73-8.59,8.54Z"/>
  <path d="M661.28,733.96l-149.14.06c-4.14,0-6.79-3.44-7.22-6.69s2.17-8.2,6.6-8.2l149.39-.14c3.85,0,6.22,3.85,6.59,6.57s-1.29,8.41-6.22,8.41Z"/>
  <path d="M659.86,654.38c5.04,0,8.15,4.67,7.49,8.83-.92,5.84-5.59,6.3-10.84,6.28l-107.45-.36c-4.78-.02-7.85-2.49-8.12-6.72-.22-3.46,2.17-8.04,6.76-8.04l70.25.03,41.9-.02Z"/>
  <path d="M537.08,568.36c1.1-7.98,4.34-14.27,7.38-21.19,24.84-56.62,37.32-80.35,72.33-131.63,45.5-66.64,95.81-129.63,151.97-187.68,22.57-23.33,46.1-45.45,71.95-64.51l-55.86,60.6c-22.48,24.39-43.21,49.1-63.9,75.12-36.08,45.37-70.14,91.58-101.44,140.49l-82.43,128.8Z" fill="#fff"/>
  <path d="M448.51,884.81l-.08,22.27c-25-15.31-51.4-27.84-80.12-35.42l-114.7-30.28-.34-44.52.75-175.79.16-101.38c28.93,5.2,56.84,13.81,84.46,23.01,41.71,13.1,82.14,37.18,110.07,71.71l-.2,270.4ZM350.92,732.6l23.3,18.79c-4.98,10.21-4.21,21.72,3.22,29.67s18.85,10.43,29.18,5.69c12.75-5.86,17.93-20.63,12.14-32.84-5.71-12.05-20.04-17.76-32.68-12.15l-27.75-20.9-2.7-58.05c8.15-3.18,14.52-9.17,16.82-17.34,2.44-8.7-.08-17.57-5.87-23.52s-14.53-8.6-23.41-6.88c-12.37,2.39-22.11,12.62-20.82,25.46,1.03,10.23,7.91,18.23,17.32,21.86l3.54,48.92-17.15-8.5c-3.19-12.68-14.99-20-27.34-18.62s-21.83,11.09-22.19,23.76,8.3,22.25,19.51,24.78,23.18-3.15,28.84-14.46c8.36,4.61,18.07,7.9,26.04,14.33Z" fill="#fff"/>
  <path d="M321.24,875.92c20.45,5.83,47.7,12.36,66.75,22.64l-148.82.07c-9.09,0-17.15-.74-26.19-1.73l-.88-96.88-.21-87.07-.91-131.88c-.01-1.95,2.35-4,3.84-4.07l20.84-1.01.36,84.15,1.08,194.79,43.34,10.75,40.81,10.25Z" fill="#fff"/>
  <path d="M577.67,899.74l-34.33-.6c22.4-3.81,44.37-4.62,67.72-4.52l114.37.49-.56-81.24-.48-237.79c3.99-1.11,11.06.05,13,4.57l.04,159.35-.27,150.91c0,5.33-3.81,9.13-9.35,9.12l-150.15-.28Z" fill="#fff"/>
  <path d="M350.92,732.6c-7.97-6.43-17.69-9.72-26.04-14.33-5.66,11.3-17.29,17.07-28.84,14.46s-19.87-12.33-19.51-24.78,10.27-22.43,22.19-23.76,24.15,5.95,27.34,18.62l17.15,8.5-3.54-48.92c-9.42-3.64-16.29-11.63-17.32-21.86-1.29-12.83,8.45-23.07,20.82-25.46,8.88-1.72,17.37.68,23.41,6.88s8.31,14.82,5.87,23.52c-2.29,8.17-8.67,14.15-16.82,17.34l2.7,58.05,27.75,20.9c12.65-5.62,26.98.1,32.68,12.15,5.79,12.22.61,26.99-12.14,32.84-10.32,4.74-21.78,2.24-29.18-5.69s-8.2-19.46-3.22-29.67l-23.3-18.79ZM359.12,644.74c2.36-4.61.09-9.42-2.89-12.51-2.77-2.88-7.38-4.44-11.66-2.5-4.49,2.04-7.41,8.14-6.16,13.09,1.12,4.43,5.84,6.76,9.13,7.15,4.73.57,9.18-.57,11.58-5.24ZM311.12,703.48c-3.16-3.37-7.23-4.98-11.28-4.18-2.81.55-6.55,2.95-7.98,6.26s-.61,7.55,1.67,10.29c1.95,2.34,5.65,3.77,9.4,3.6,3.99-.18,7.81-2.5,9.36-5.56s1.39-7.67-1.17-10.41ZM405.97,770.01c3.1-5.54-.24-11.06-4.84-13.28-4.05-1.95-9.31-1.84-12.76,2.06-2.73,3.08-4.39,8.94-.93,12.93,4.6,5.3,14.9,4.77,18.52-1.71Z"/>
  <path d="M359.12,644.74c-2.39,4.67-6.85,5.81-11.58,5.24-3.29-.4-8.01-2.73-9.13-7.15-1.25-4.95,1.67-11.05,6.16-13.09s8.88-.39,11.66,2.5c2.98,3.09,5.25,7.9,2.89,12.51Z" fill="#fff"/>
  <path d="M311.12,703.48c2.56,2.73,2.7,7.39,1.17,10.41s-5.37,5.38-9.36,5.56c-3.76.17-7.46-1.25-9.4-3.6-2.28-2.75-3.16-6.84-1.67-10.29s5.16-5.71,7.98-6.26c4.05-.79,8.11.81,11.28,4.18Z" fill="#fff"/>
  <path d="M405.97,770.01c-3.63,6.48-13.93,7-18.52,1.71-3.46-3.99-1.8-9.85.93-12.93,3.45-3.9,8.71-4.01,12.76-2.06,4.6,2.22,7.93,7.74,4.84,13.28Z" fill="#fff"/>
</svg>