<?xml version="1.0" encoding="UTF-8"?>
<svg id="uuid-7ae5e9ac-018b-422e-84df-772c158793a2" data-name="Layer 2" xmlns="http://www.w3.org/2000/svg" viewBox="0 0 735.16 828.75">
  <g id="uuid-37779736-3fb8-4a10-91fe-d97c2213c1b3" data-name="Layer 1">
    <g>
      <g>
        <path d="M323.3,554.62c-.12,4.78-1.43,9.51-4.4,13.4-10.31,13.48-21.36,25.75-33.1,37.95l-3.57,3.71.9-25.18c.48-13.36.56-26.04,2.66-39.31.4-2.53,2.22-5.15,3.88-7.35,17.96-23.81,33.17-48.94,43.58-77.02,1.95-5.27.66-12.22.29-17.62l-1.15-16.75-1.26-21.94c-2.66-46.48,11.04-74.83,31.17-115.9,6.33,15.44,9.31,25.13,18.01,38.01l-1.38-18.2c-.7-9.25-.76-18.54-.37-27.85.16-3.84,1.95-23.04,3.19-25.64,8.1-16.88,18.32-31.6,29.57-46.38,7.74-10.18,15.79-19.29,24.13-28.96,8.45-9.79,17.09-18.66,26.3-27.68l17.66-17.3,13.52-12.47,18.99-16.12c7.52-6.39,15.06-11.86,23.9-18.13-1.47,9.13-3.55,16.48-2,26.32,9.17-12.62,14.23-25.68,24.21-38.96,23.2-14.9,46.21-28.49,71.33-39.79,37.3-16.77,64.64-25.28,104.02-35.07l1.65-.41c.28-.07.1,1.17-.1,1.45l-4.74,6.83c-6.92,9.98-12.74,20.03-18.31,30.8l-7.8,15.07-11.52,21.36-14.2,25.95-6.9,13.08-10.27,20.68-11.78,23.36c-4.15,8.24-8.3,15.87-13.44,23.65l-9.21,5.76c-7.59,4.75-14.87,9.19-22.97,12.84l-16.56,7.46,18.19.99c5.29.29,10.42-.41,16.52-.73l-13.73,22.82-17.71,27.19c-7.1,10.9-14.67,20.97-22.92,31.01l-17.16,20.91c-7.04,8.57-14.46,16.07-22.53,23.78-13.21,6.66-26.42,11.78-40.9,15.04l-17.84,4.02c14.33,4.06,28.24,4.43,43.57,4.19l-9.25,11c-7.24,8.61-14.51,16.65-22.3,24.88-10.16,10.75-21.76,19.35-33.89,27.96-20.51,14.57-37.16,24-60.3,34l-31.92,13.8c-9.62,12.12-21.41,36.54-25.82,51.09-3.08,10.18-5.67,23.61-5.94,34.33ZM342.49,469.79l33.92-53.06,48.86-76.23c22.63-35.3,46.05-69.14,71.7-102.19l21.1-27.19,39.62-49.11,14.49-16.65,36.43-39.55,32.43-34.54c1.8-1.92,3.52-3.21,4.32-6.48l-20.3,16.52c-38.71,31.5-92.03,91.17-124.29,130.61-29.58,36.16-57.35,72.82-83.05,111.75l-19.11,28.94c-6.51,9.85-12.31,19.72-17.56,30.28l-16.29,32.72-15.58,34.5c-2.85,6.32-5.85,12.27-6.69,19.66Z"/>
        <g>
          <path d="M472.93,690.79c.71,4.64-3.83,8.54-8.55,8.38l-18.18-.61-129.64-.05c-4.55,0-6.78-5.09-6.29-8.33.63-4.16,4.33-7.54,9.08-6.51l83.95.06,58.03-.07c5.17,0,10.53.06,11.61,7.14Z"/>
          <path d="M465.41,620.45c4.08-.02,6.99,3.18,7.44,6.62s-1.84,8.43-6.61,8.44l-147.8.05c-4.61,0-7.66-2.64-8.18-6.7-.48-3.75,2.61-8.27,7.33-8.27l92.66.12,16.11-.07,39.05-.19Z"/>
          <path d="M464.85,555.82c4.65-.08,7.74,3.66,7.9,7.24.18,3.82-2.38,7.7-6.92,8.11-1.36.12-3.88-.34-5.65-.34l-105.78-.19c-4.76,0-7.84-2.47-8.13-6.66s2.64-8.12,7.51-8.12l56.52-.02,39.02.25,15.52-.27Z"/>
        </g>
      </g>
      <g>
        <path d="M446.26,441.49c2.05-1.91,5.03-2.33,8.02-2.18l17.08.88,35.98,1.96,22.89,1.29.36,20.24c11.54-1.9,26.57,6.7,26.57,20l.05,311.63c0,14.39-14.22,22.54-26.68,22.42l-52.3-.5-97.86-.85-86.08-.91c-5.78,2.32-11.85,5.74-17.2,8.89-9.62,5.65-20.96,5.88-30.74.46l-12.43-6.88-86.62-.34-122.58-.2c-13.81-.02-23.39-10.55-23.38-23.86l.07-83.08-.93-139.89L0,483.59c-.06-11.09,6.45-20.24,17.34-22.35l9.43-1.83.56-7.14,17.31-.99.84-48.01c15.84,2.06,30.98,4.51,46.28,8.53,25.06,6.59,49.09,13.52,73.25,22.68,37.89,14.36,74.91,38.23,98.3,71.47,5.74-14.24,18.47-27.99,29.59-38.89,6.63-6.5,14.13-12.18,21.93-17.28,1.1-.72,5.25-.19,5.24,1.05-.09,9.75-6.73,18.38-14.27,24.23-15.43,11.96-26.9,27.14-37.13,43.55l.29,39.06.19,142.23.28,105.26c4.46-2.48,8.75-5.69,13.23-7.42,21.52-8.35,50.4-13.72,73.31-14.87l21.36-1.08,36.12-.62,99.86.44c.37,0,2.15-.19,2.15-.48v-1.79s-.56-116.71-.56-116.71l-.28-41.15-.3-66.99-.43-97.38c-15.11-6.24-30.49-9.9-46.46-12.35l-21.15-3.26ZM253.66,808.44l.15-25.91.3-19.14.17-151.8-.29-95.79c-9.47-10.96-18.73-20.92-30.1-29.77-24.18-18.82-50.63-32.68-79.9-41.8-14.29-4.95-27.79-8.99-42.24-13.08-14.03-3.96-27.51-7.4-42.2-9.98l-.15,41.45-.29,129.87-.49,112.95.34,37.48,104.51,27.14c18.49,4.8,55.27,18.67,71.54,27.84l18.67,10.53ZM350.22,801.24l10.08-.25,63.1.48,109.81.09c5.44,0,9.29-3.82,9.3-9.13l.26-150.89.09-156.87c0-6.8-8.92-8.26-13.13-7.09l.5,235.8.19,60.15.33,23.09-86.37-.31-52.1.17c-10.01.03-39.67,3.46-42.57,3.09-.43-.05.09,1.7.52,1.69ZM161.86,787.69c-12.1-3.94-23.36-7.26-35.29-10.25l-38.4-9.62-21.43-5.54-24.3-5.82-.83-136.86-.35-83.06-.31-59.03-20.82,1c-1.46.07-3.84,2.14-3.82,4.07l.91,131.89.22,87.07.87,96.69c4.93.82,9.23,1.5,13.85,1.53l69.2.41,91.94-.09c-10.11-5.93-20.33-8.78-31.44-12.4Z"/>
        <path d="M147.05,628.36l-16.8-8.59c-4.74,9.42-14.05,15.75-24.91,15.03-13.46-.9-23.82-11.72-23.46-25.31.34-12.71,10.27-22.44,22.18-23.78,12.35-1.39,24.17,5.97,27.34,18.62l17.15,8.54-.99-13.56-.93-12.84-1.03-14.32-.59-8.24c-10.5-3.97-17.8-13.69-17.41-24.88.57-16.4,18.75-26.38,33.88-21.85,12.52,3.75,19.54,16.28,16.51,29.09-2.02,8.52-8.74,14.8-16.92,18.09l.67,18.22.86,15.95.97,23.86,27.82,20.94c7.68-3.4,15.57-2.84,22.67,1.25,8.22,4.73,12.68,13.13,12.35,22.37s-5.68,17.3-14.48,21.36c-9.97,4.59-21.26,2.37-28.63-5.17s-9.17-19.31-3.68-29.94l-17.45-14.51c-4.67-3.89-9.29-7.33-15.11-10.31ZM155.42,551.66c3.67-.04,7.37-2.22,8.84-4.83,1.89-3.35,1.23-7.48-.71-10.6-3.18-5.11-9.41-7.8-14.88-4.3-3.29,2.1-5.78,7.49-5.12,11.47.94,5.72,6.48,8.31,11.87,8.25ZM116.46,605.02c-3.17-3.37-7.24-5-11.29-4.19-2.81.56-6.54,2.95-7.97,6.26s-.61,7.54,1.67,10.29c1.95,2.35,5.65,3.77,9.42,3.6,3.98-.18,7.8-2.51,9.34-5.55s1.39-7.71-1.16-10.41ZM211,672.1c3.52-5.2.46-11.35-4.26-13.71s-10.38-1.62-13.49,2.49c-2.6,3.44-3.77,9.22-.05,12.85,4.73,4.62,13.91,4.13,17.8-1.62Z"/>
      </g>
    </g>
  </g>
</svg>